<?xml version="1.0" encoding="UTF-8"?><svg id="Layer_1" xmlns="http://www.w3.org/2000/svg" viewBox="0 0 583 611"><defs><style>.cls-1{fill:#82d4bb;}.cls-2{fill:#fff;}.cls-3{fill:#2e2c2f;}.cls-4{fill:#f3b61f;}.cls-5{fill:#ff66b3;}</style></defs><path class="cls-3" d="M110.13,451.77h-29.05v18.32h34.32v14.21h-52.79v-76.64h52.9v14.26h-34.42v16.16h29.05v13.68Z"/><path class="cls-3" d="M147.18,407.66l17.11,53.32,17.05-53.32h24.32v76.64h-18.53v-17.9l1.79-36.63-18.53,54.53h-12.21l-18.58-54.58,1.79,36.69v17.9h-18.47v-76.64h24.26Z"/><path class="cls-3" d="M282.29,447.56c0,7.47-1.39,14.09-4.16,19.84-2.77,5.75-6.71,10.18-11.82,13.29s-10.92,4.66-17.45,4.66-12.32-1.5-17.37-4.5c-5.05-3-8.99-7.29-11.82-12.87-2.82-5.58-4.31-11.98-4.45-19.21v-4.32c0-7.51,1.38-14.13,4.13-19.87,2.75-5.74,6.7-10.17,11.84-13.29,5.14-3.12,10.99-4.68,17.55-4.68s12.28,1.54,17.37,4.63c5.09,3.09,9.04,7.48,11.87,13.19,2.82,5.7,4.25,12.24,4.29,19.61v3.53ZM263.5,444.35c0-7.61-1.27-13.4-3.82-17.34-2.54-3.95-6.18-5.92-10.92-5.92-9.26,0-14.16,6.95-14.68,20.84l-.05,5.63c0,7.51,1.25,13.28,3.74,17.32,2.49,4.04,6.19,6.05,11.11,6.05s8.26-1.98,10.79-5.95c2.53-3.96,3.81-9.67,3.84-17.11v-3.53Z"/><path class="cls-3" d="M347.51,421.93h-23v62.37h-18.47v-62.37h-22.58v-14.26h64.06v14.26Z"/><path class="cls-3" d="M374.98,484.3h-18.42v-76.64h18.42v76.64Z"/><path class="cls-3" d="M452.72,447.56c0,7.47-1.39,14.09-4.16,19.84-2.77,5.75-6.71,10.18-11.82,13.29s-10.92,4.66-17.45,4.66-12.32-1.5-17.37-4.5c-5.05-3-8.99-7.29-11.82-12.87-2.82-5.58-4.31-11.98-4.45-19.21v-4.32c0-7.51,1.38-14.13,4.13-19.87,2.75-5.74,6.7-10.17,11.84-13.29,5.14-3.12,10.99-4.68,17.55-4.68s12.28,1.54,17.37,4.63c5.09,3.09,9.04,7.48,11.87,13.19,2.82,5.7,4.25,12.24,4.29,19.61v3.53ZM433.93,444.35c0-7.61-1.27-13.4-3.82-17.34-2.54-3.95-6.18-5.92-10.92-5.92-9.26,0-14.16,6.95-14.68,20.84l-.05,5.63c0,7.51,1.25,13.28,3.74,17.32,2.49,4.04,6.19,6.05,11.11,6.05s8.26-1.98,10.79-5.95c2.53-3.96,3.81-9.67,3.84-17.11v-3.53Z"/><path class="cls-3" d="M526.25,484.3h-18.37l-27.16-47.69v47.69h-18.47v-76.64h18.47l27.11,47.69v-47.69h18.42v76.64Z"/><path class="cls-3" d="M103.8,501.59v12.82h10.37v4.54h-10.37v33.41c0,2.78.5,4.85,1.5,6.21,1,1.36,2.68,2.04,5.02,2.04.93,0,2.42-.15,4.49-.46l.23,4.5c-1.45.52-3.43.78-5.92.78-3.8,0-6.56-1.1-8.29-3.31-1.73-2.21-2.59-5.45-2.59-9.74v-33.42h-9.21v-4.54h9.21v-12.82h5.55Z"/><path class="cls-3" d="M170.59,519.14c-1.17-.21-2.42-.32-3.75-.32-3.46,0-6.38.96-8.77,2.89-2.39,1.93-4.1,4.73-5.11,8.4v34.39h-5.51v-50.08h5.42l.09,7.96c2.93-5.92,7.64-8.89,14.12-8.89,1.54,0,2.76.2,3.66.6l-.14,5.04Z"/><path class="cls-3" d="M230.91,564.5c-.56-1.57-.91-3.9-1.06-6.99-1.94,2.53-4.42,4.48-7.43,5.86-3.01,1.37-6.2,2.06-9.56,2.06-4.81,0-8.71-1.34-11.69-4.03-2.98-2.68-4.47-6.08-4.47-10.18,0-4.88,2.03-8.73,6.09-11.57,4.06-2.84,9.71-4.26,16.96-4.26h10.04v-5.69c0-3.58-1.1-6.39-3.31-8.45-2.21-2.05-5.42-3.08-9.65-3.08-3.86,0-7.05.99-9.58,2.96-2.53,1.97-3.8,4.35-3.8,7.13l-5.55-.05c0-3.98,1.85-7.43,5.55-10.34,3.7-2.92,8.25-4.37,13.65-4.37s9.99,1.4,13.21,4.19c3.22,2.79,4.88,6.69,4.98,11.69v23.7c0,4.84.51,8.47,1.53,10.88v.56h-5.92ZM213.5,560.52c3.7,0,7.01-.89,9.93-2.68,2.92-1.79,5.04-4.18,6.36-7.17v-11.02h-9.91c-5.52.06-9.84,1.07-12.96,3.03-3.12,1.96-4.67,4.65-4.67,8.08,0,2.81,1.04,5.14,3.12,6.99,2.08,1.85,4.79,2.78,8.12,2.78Z"/><path class="cls-3" d="M290.39,560.75c3.86,0,7.09-1.09,9.7-3.26,2.61-2.17,4.02-4.99,4.23-8.45h5.32c-.15,3.05-1.11,5.84-2.87,8.35-1.76,2.52-4.1,4.48-7.01,5.9s-6.04,2.13-9.37,2.13c-6.57,0-11.78-2.28-15.62-6.85-3.84-4.57-5.76-10.71-5.76-18.42v-1.67c0-4.94.86-9.3,2.59-13.1,1.73-3.8,4.2-6.73,7.43-8.79,3.22-2.07,7-3.1,11.32-3.1,5.49,0,10.02,1.64,13.59,4.91,3.56,3.27,5.47,7.58,5.72,12.91h-5.32c-.25-3.92-1.66-7.08-4.23-9.49-2.58-2.41-5.83-3.61-9.74-3.61-5,0-8.88,1.81-11.64,5.42-2.76,3.61-4.14,8.67-4.14,15.18v1.62c0,6.39,1.38,11.37,4.14,14.95,2.76,3.58,6.66,5.37,11.69,5.37Z"/><path class="cls-3" d="M354.4,539.27l-6.34,6.11v19.12h-5.55v-71.1h5.55v45.5l5.23-5.65,19.16-18.84h6.99l-21.25,21.11,23.1,28.98h-6.62l-20.27-25.23Z"/><path class="cls-3" d="M429.2,565.42c-4.26,0-8.11-1.05-11.55-3.15-3.44-2.1-6.12-5.02-8.03-8.77-1.91-3.75-2.87-7.95-2.87-12.61v-1.99c0-4.81.93-9.15,2.8-13.01,1.87-3.86,4.47-6.89,7.8-9.09,3.33-2.21,6.94-3.31,10.83-3.31,6.08,0,10.9,2.08,14.46,6.23s5.35,9.82,5.35,17.01v3.1h-35.73v1.06c0,5.68,1.63,10.41,4.88,14.19,3.26,3.78,7.35,5.67,12.29,5.67,2.96,0,5.58-.54,7.85-1.62s4.33-2.81,6.18-5.18l3.47,2.64c-4.07,5.89-9.98,8.84-17.73,8.84ZM428.19,518.21c-4.17,0-7.68,1.53-10.53,4.58-2.85,3.05-4.59,7.16-5.21,12.31h30.04v-.6c-.15-4.81-1.53-8.73-4.12-11.76-2.59-3.02-5.99-4.54-10.18-4.54Z"/><path class="cls-3" d="M503.73,519.14c-1.17-.21-2.42-.32-3.75-.32-3.46,0-6.38.96-8.77,2.89-2.39,1.93-4.1,4.73-5.11,8.4v34.39h-5.51v-50.08h5.42l.09,7.96c2.93-5.92,7.64-8.89,14.12-8.89,1.54,0,2.76.2,3.66.6l-.14,5.04Z"/><circle class="cls-4" cx="255.84" cy="138.09" r="80"/><path class="cls-3" d="M271.23,156.37c-8.29,0-16.27-2.52-23.08-7.29-16.44-11.5-21.94-33.61-12.79-51.43.68-1.33,2.04-2.15,3.56-2.15.83,0,1.62.25,2.3.72l58.97,41.24c.95.66,1.57,1.71,1.69,2.87.12,1.15-.25,2.28-1.02,3.12-7.59,8.21-18.38,12.91-29.62,12.91h0Z"/><path class="cls-5" d="M260.09,132c-9.83-6.87-20.13-11.84-30.12-14.92.33,12.66,6.42,25.01,17.6,32.83,11.18,7.82,24.86,9.3,36.87,5.27-6.32-8.33-14.52-16.3-24.35-23.17Z"/><path class="cls-3" d="M266.39,91.29c-.94-.66-1.17-1.95-.51-2.89,2.62-3.75,1.71-8.94-2.04-11.56-3.75-2.62-8.94-1.71-11.56,2.05-.66.94-1.95,1.17-2.89.51s-1.17-1.95-.51-2.89c3.93-5.62,11.71-7,17.33-3.07,5.62,3.93,7,11.71,3.07,17.33-.66.94-1.95,1.17-2.89.51Z"/><path class="cls-3" d="M313.18,124.02c-.94-.66-1.17-1.95-.51-2.89,2.62-3.75,1.71-8.94-2.04-11.56-3.75-2.62-8.94-1.71-11.56,2.05-.66.94-1.95,1.17-2.89.51s-1.17-1.95-.51-2.89c3.93-5.62,11.71-7,17.33-3.07,5.62,3.93,7,11.71,3.07,17.33-.66.94-1.95,1.17-2.89.51Z"/><path class="cls-2" d="M300.75,136.65l-58.97-41.24c-2.47-1.73-5.94-.89-7.32,1.79-.95,1.86-1.72,3.77-2.37,5.71l64.93,45.41c1.6-1.28,3.14-2.65,4.55-4.18,2.05-2.21,1.64-5.76-.83-7.49Z"/><polygon class="cls-5" points="308.38 367 120.38 367 214.38 206 308.38 367"/><circle class="cls-2" cx="192.78" cy="325.11" r="16.54" transform="translate(-173.42 231.54) rotate(-45)"/><circle class="cls-2" cx="235.97" cy="325.11" r="16.54" transform="translate(-160.77 262.08) rotate(-45)"/><circle class="cls-3" cx="192.78" cy="315.02" r="6.45"/><circle class="cls-3" cx="235.97" cy="315.02" r="6.45"/><path class="cls-3" d="M221.34,355.06h-13.93c-1.03,0-1.86-.83-1.86-1.86s.83-1.86,1.86-1.86h13.93c1.03,0,1.86.83,1.86,1.86s-.83,1.86-1.86,1.86Z"/><rect class="cls-1" x="286.57" y="177.22" width="151.53" height="161" transform="translate(-63.97 384.07) rotate(-51.93)"/><path class="cls-3" d="M375.47,268.86h0c-3.94,5.04-5.67,11.6-4.86,18.46.07.58.36,1.05.82,1.31.46.27,1.03.3,1.61.08.59-.21,1.11-.63,1.47-1.19.36-.56.52-1.18.45-1.76-.48-4-.26-9.76,3.49-14.56,3.75-4.79,9.29-6.38,13.28-6.88,1.16-.14,2.28-1.33,2.41-2.56.07-.62-.1-1.17-.46-1.55-.36-.38-.89-.55-1.47-.48-6.85.85-12.79,4.09-16.74,9.12Z"/><path class="cls-3" d="M333.53,297.74c-1.02,1.3-2.89,1.53-4.19.51-9.5-7.44-11.17-21.21-3.73-30.71,1.02-1.3,2.89-1.53,4.19-.51,1.3,1.02,1.53,2.89.51,4.19-5.41,6.9-4.19,16.92,2.72,22.33,1.3,1.02,1.53,2.89.51,4.19Z"/><path class="cls-3" d="M393.9,220.65c1.02-1.3.79-3.17-.51-4.19-9.5-7.44-23.27-5.76-30.71,3.73-1.02,1.3-.79,3.17.51,4.19,1.3,1.02,3.17.79,4.19-.51,5.41-6.9,15.42-8.12,22.33-2.72,1.3,1.02,3.17.79,4.19-.51Z"/><circle class="cls-3" cx="342.83" cy="281.02" r="10.34" transform="translate(-19.39 536.57) rotate(-74.55)"/><circle class="cls-3" cx="379.35" cy="234.39" r="10.34" transform="translate(52.35 537.56) rotate(-74.55)"/><path class="cls-2" d="M341.25,278.09c1.88,1.47,2.21,4.18.74,6.06-1.47,1.88-4.18,2.21-6.06.74s-2.21-4.18-.74-6.06,4.18-2.21,6.06-.74Z"/><path class="cls-2" d="M378.2,230.91c1.88,1.47,2.21,4.18.74,6.06-1.47,1.88-4.18,2.21-6.06.74-1.88-1.47-2.21-4.18-.74-6.06,1.47-1.88,4.18-2.21,6.06-.74Z"/></svg>