<?xml version="1.0" encoding="UTF-8"?><svg id="Layer_1" xmlns="http://www.w3.org/2000/svg" viewBox="0 0 583 611"><defs><style>.cls-1{fill:#82d4bb;}.cls-2{letter-spacing:-.04em;}.cls-2,.cls-3{font-family:Roboto-Black, Roboto;font-weight:800;}.cls-4{fill:#fff;}.cls-5{letter-spacing:.21em;}.cls-5,.cls-6,.cls-7{font-family:Roboto-Light, Roboto;font-weight:300;}.cls-8,.cls-9,.cls-10{fill:#2e2c2f;}.cls-11{fill:#f3b61f;}.cls-6{letter-spacing:.22em;}.cls-12{font-family:MyriadPro-Regular, 'Myriad Pro';}.cls-7{letter-spacing:.23em;}.cls-13{fill:#ff66b3;}.cls-9{font-size:107.79px;}.cls-10{font-size:94.8px;}</style></defs><text class="cls-9" transform="translate(56.81 484.3)"><tspan class="cls-3" x="0" y="0">EM</tspan><tspan class="cls-2" x="154.8" y="0">O</tspan><tspan class="cls-3" x="224.75" y="0">TION</tspan><tspan class="cls-12" x="475.34" y="0"> </tspan></text><text class="cls-10" transform="translate(67.87 564.5)"><tspan class="cls-12" x="0" y="0"> </tspan><tspan class="cls-7" x="20.1" y="0">t</tspan><tspan class="cls-5" x="72.35" y="0">r</tspan><tspan class="cls-7" x="124.2" y="0">ac</tspan><tspan class="cls-6" x="267.41" y="0">k</tspan><tspan class="cls-7" x="334.72" y="0">er</tspan></text><circle class="cls-11" cx="255.84" cy="138.09" r="80"/><path class="cls-8" d="M271.23,156.37c-8.29,0-16.27-2.52-23.08-7.29-16.44-11.5-21.94-33.61-12.79-51.43.68-1.33,2.04-2.15,3.56-2.15.83,0,1.62.25,2.3.72l58.97,41.24c.95.66,1.57,1.71,1.69,2.87.12,1.15-.25,2.28-1.02,3.12-7.59,8.21-18.38,12.91-29.62,12.91h0Z"/><path class="cls-13" d="M260.09,132c-9.83-6.87-20.13-11.84-30.12-14.92.33,12.66,6.42,25.01,17.6,32.83,11.18,7.82,24.86,9.3,36.87,5.27-6.32-8.33-14.52-16.3-24.35-23.17Z"/><path class="cls-8" d="M266.39,91.29c-.94-.66-1.17-1.95-.51-2.89,2.62-3.75,1.71-8.94-2.04-11.56-3.75-2.62-8.94-1.71-11.56,2.05-.66.94-1.95,1.17-2.89.51s-1.17-1.95-.51-2.89c3.93-5.62,11.71-7,17.33-3.07s7,11.71,3.07,17.33c-.66.94-1.95,1.17-2.89.51Z"/><path class="cls-8" d="M313.18,124.02c-.94-.66-1.17-1.95-.51-2.89,2.62-3.75,1.71-8.94-2.04-11.56-3.75-2.62-8.94-1.71-11.56,2.05-.66.94-1.95,1.17-2.89.51s-1.17-1.95-.51-2.89c3.93-5.62,11.71-7,17.33-3.07s7,11.71,3.07,17.33c-.66.94-1.95,1.17-2.89.51Z"/><path class="cls-4" d="M300.75,136.65l-58.97-41.24c-2.47-1.73-5.94-.89-7.32,1.79-.95,1.86-1.72,3.77-2.37,5.71l64.93,45.41c1.6-1.28,3.14-2.65,4.55-4.18,2.05-2.21,1.64-5.76-.83-7.49Z"/><polygon class="cls-13" points="308.38 367 120.38 367 214.38 206 308.38 367"/><circle class="cls-4" cx="192.78" cy="325.11" r="16.54" transform="translate(-173.42 231.54) rotate(-45)"/><circle class="cls-4" cx="235.97" cy="325.11" r="16.54" transform="translate(-160.77 262.08) rotate(-45)"/><circle class="cls-8" cx="192.78" cy="315.02" r="6.45"/><circle class="cls-8" cx="235.97" cy="315.02" r="6.45"/><path class="cls-8" d="M221.34,355.06h-13.93c-1.03,0-1.86-.83-1.86-1.86s.83-1.86,1.86-1.86h13.93c1.03,0,1.86.83,1.86,1.86s-.83,1.86-1.86,1.86Z"/><rect class="cls-1" x="286.57" y="177.22" width="151.53" height="161" transform="translate(-63.97 384.07) rotate(-51.93)"/><path class="cls-8" d="M375.47,268.86h0c-3.94,5.04-5.67,11.6-4.86,18.46.07.58.36,1.05.82,1.31.46.27,1.03.3,1.61.08.59-.21,1.11-.63,1.47-1.19.36-.56.52-1.18.45-1.76-.48-4-.26-9.76,3.49-14.56,3.75-4.79,9.29-6.38,13.28-6.88,1.16-.14,2.28-1.33,2.41-2.56.07-.62-.1-1.17-.46-1.55-.36-.38-.89-.55-1.47-.48-6.85.85-12.79,4.09-16.74,9.12Z"/><path class="cls-8" d="M333.53,297.74c-1.02,1.3-2.89,1.53-4.19.51-9.5-7.44-11.17-21.21-3.73-30.71,1.02-1.3,2.89-1.53,4.19-.51s1.53,2.89.51,4.19c-5.41,6.9-4.19,16.92,2.72,22.33,1.3,1.02,1.53,2.89.51,4.19Z"/><path class="cls-8" d="M393.9,220.65c1.02-1.3.79-3.17-.51-4.19-9.5-7.44-23.27-5.76-30.71,3.73-1.02,1.3-.79,3.17.51,4.19s3.17.79,4.19-.51c5.41-6.9,15.42-8.12,22.33-2.72,1.3,1.02,3.17.79,4.19-.51Z"/><circle class="cls-8" cx="342.83" cy="281.02" r="10.34" transform="translate(-19.39 536.57) rotate(-74.55)"/><circle class="cls-8" cx="379.35" cy="234.39" r="10.34" transform="translate(52.35 537.56) rotate(-74.55)"/><path class="cls-4" d="M341.25,278.09c1.88,1.47,2.21,4.18.74,6.06-1.47,1.88-4.18,2.21-6.06.74s-2.21-4.18-.74-6.06,4.18-2.21,6.06-.74Z"/><path class="cls-4" d="M378.2,230.91c1.88,1.47,2.21,4.18.74,6.06-1.47,1.88-4.18,2.21-6.06.74-1.88-1.47-2.21-4.18-.74-6.06,1.47-1.88,4.18-2.21,6.06-.74Z"/></svg>